<svg width="17" height="23" viewBox="0 0 17 23" fill="none" xmlns="http://www.w3.org/2000/svg">
<path d="M8.5 0.25C4.14625 0.25 0.625 3.77125 0.625 8.125C0.625 14.0312 8.5 22.75 8.5 22.75C8.5 22.75 16.375 14.0312 16.375 8.125C16.375 3.77125 12.8538 0.25 8.5 0.25ZM8.5 10.9375C7.75408 10.9375 7.03871 10.6412 6.51126 10.1137C5.98382 9.58629 5.6875 8.87092 5.6875 8.125C5.6875 7.37908 5.98382 6.66371 6.51126 6.13626C7.03871 5.60882 7.75408 5.3125 8.5 5.3125C9.24592 5.3125 9.96129 5.60882 10.4887 6.13626C11.0162 6.66371 11.3125 7.37908 11.3125 8.125C11.3125 8.87092 11.0162 9.58629 10.4887 10.1137C9.96129 10.6412 9.24592 10.9375 8.5 10.9375Z" fill="#1E4B8F"/>
</svg>
