<svg width="96" height="60" viewBox="0 0 96 60" fill="none" xmlns="http://www.w3.org/2000/svg">
<path d="M71.7108 13.9407C80.439 24.0464 92.0831 20.1318 95.1403 28.2385C96.518 31.8847 95.8669 36.4933 93.6494 38.8717C88.6767 44.2021 81.3166 45.7661 74.617 48.1722C72.9846 48.7552 73.0318 48.7737 71.5692 49.3382C54.575 55.9087 53.2162 57.9262 47.8377 58.7961C46.1864 59.0644 35.8917 60.7394 28.9374 54.6964C22.1152 48.7737 22.6058 38.9364 22.7851 35.4013C23.6815 17.3278 39.8548 0.633107 53.2068 0.438768C57.3868 0.378982 60.8355 1.86412 61.3425 2.09348C61.387 2.11365 61.4299 2.13411 61.4739 2.15545C67.1476 4.90567 67.6504 9.23956 71.7108 13.9407Z" fill="url(#paint0_linear_14_965)" fill-opacity="0.7"/>
<path d="M10.2568 27.6426C9.75931 27.7475 9.2966 27.9755 8.91171 28.3052C8.52682 28.6349 8.23223 29.0558 8.05531 29.5287C7.8784 30.0015 7.82491 30.5111 7.8998 31.01C7.9747 31.5088 8.17555 31.9808 8.4837 32.3821L7.21717 39.7916C7.19042 39.9489 7.19873 40.1101 7.24155 40.2639C7.28436 40.4176 7.36062 40.5602 7.46497 40.6816C7.56845 40.8032 7.69747 40.9009 7.843 40.9679C7.98853 41.0348 8.14705 41.0694 8.30749 41.0693H13.4727C13.6313 41.0709 13.7883 41.0384 13.9331 40.9743C14.0778 40.9101 14.2069 40.8157 14.3115 40.6975C14.4161 40.5793 14.4937 40.44 14.539 40.2894C14.5843 40.1387 14.5962 39.9801 14.574 39.8244L13.4892 32.1036C13.8962 31.426 14.0164 30.6162 13.8235 29.851C13.6305 29.0858 13.1402 28.4274 12.4595 28.0194L12.4595 24.017L19.2822 26.9382L19.2822 43.6738C19.2822 44.6673 19.6802 45.62 20.3886 46.3225C21.0971 47.0249 22.0579 47.4196 23.0598 47.4196H54.1172C55.1162 47.4152 56.0728 47.0187 56.7776 46.3167C57.4825 45.6147 57.8782 44.6644 57.8782 43.6738L57.8782 25.9117L74.0898 18.939C74.2941 18.8515 74.4669 18.7047 74.5854 18.5179C74.7039 18.3311 74.7625 18.1131 74.7536 17.8926C74.7447 17.6721 74.6685 17.4594 74.5353 17.2826C74.402 17.1059 74.2179 16.9733 74.0072 16.9024L37.1347 4.42028C36.8927 4.33354 36.6278 4.33354 36.3858 4.42028C23.7646 9.17068 3.02662 16.7276 1.11032 16.8423C0.855694 16.8402 0.608218 16.9257 0.410004 17.0842C0.21179 17.2427 0.075084 17.4644 0.0231511 17.7116C-0.0287819 17.9588 0.00726682 18.2161 0.125162 18.4399C0.243058 18.6637 0.435516 18.8401 0.669785 18.939L10.2568 23.0615L10.2568 27.6426ZM9.60705 38.8852L10.7414 32.2074C10.7737 32.0191 10.7555 31.8257 10.6889 31.6466C10.6222 31.4674 10.5093 31.3087 10.3615 31.1863C10.2558 31.0981 10.1744 30.9848 10.1247 30.8571C10.0749 30.7293 10.0585 30.5912 10.077 30.4554C10.0954 30.3197 10.1481 30.1908 10.2302 30.0807C10.3123 29.9705 10.4211 29.8827 10.5465 29.8253C10.6719 29.768 10.8099 29.7429 10.9477 29.7525C11.0854 29.7622 11.2185 29.8061 11.3346 29.8803C11.4507 29.9545 11.546 30.0565 11.6117 30.177C11.6775 30.2974 11.7115 30.4324 11.7106 30.5693C11.7151 30.7704 11.6422 30.9656 11.5068 31.1153C11.4026 31.2328 11.3251 31.3711 11.2795 31.5209C11.2339 31.6707 11.2213 31.8285 11.2425 31.9835L12.2062 38.8961L9.60705 38.8852ZM55.6756 43.6738C55.6756 44.088 55.5096 44.4852 55.2143 44.7781C54.9189 45.0709 54.5184 45.2355 54.1007 45.2355H23.0432C22.6284 45.2312 22.2321 45.0647 21.9403 44.7723C21.6485 44.4799 21.4848 44.0852 21.4849 43.6738L21.4849 27.8829L36.9585 34.5389C37.0975 34.599 37.2474 34.6301 37.399 34.6301C37.5506 34.6301 37.7006 34.599 37.8396 34.5389L55.6921 26.8618L55.6756 43.6738ZM4.46386 18.1691C12.4265 15.7175 31.573 8.57551 36.7988 6.61529L70.6041 18.0818L37.3825 32.3493L15.4276 22.925L33.9519 20.5061C35.0047 21.0651 36.1892 21.3347 37.3825 21.2869C39.9376 21.2869 41.8594 20.2768 41.8594 18.939C41.8594 17.6013 39.9376 16.5966 37.3825 16.5966C35.1799 16.5966 33.4453 17.3446 33.0103 18.4094L11.5344 21.2214L4.46386 18.1691ZM34.0014 18.939C34.0014 18.4312 35.3175 17.6886 37.3825 17.6886C39.4475 17.6886 40.7581 18.4312 40.7581 18.939C40.7581 19.4468 39.442 20.1949 37.3825 20.1949C35.323 20.1949 34.0014 19.4523 34.0014 18.939Z" fill="#082755"/>
<defs>
<linearGradient id="paint0_linear_14_965" x1="59.2812" y1="0.437012" x2="59.2812" y2="59.2108" gradientUnits="userSpaceOnUse">
<stop stop-color="#F7744A"/>
<stop offset="1" stop-color="#FFB423"/>
</linearGradient>
</defs>
</svg>
