<svg width="85" height="82" viewBox="0 0 85 82" fill="none" xmlns="http://www.w3.org/2000/svg">
<path d="M60.0096 13.9407C68.7379 24.0464 80.3819 20.1318 83.4391 28.2385C84.8168 31.8847 84.1657 36.4933 81.9483 38.8717C76.9755 44.2021 69.6154 45.7661 62.9159 48.1722C61.2834 48.7552 61.3306 48.7737 59.868 49.3382C42.8738 55.9087 41.515 57.9262 36.1365 58.7961C34.4852 59.0644 24.1905 60.7394 17.2362 54.6964C10.414 48.7737 10.9047 38.9364 11.0839 35.4013C11.9804 17.3278 28.1537 0.633107 41.5056 0.438768C45.6857 0.378982 49.1344 1.86412 49.6413 2.09348C49.6859 2.11365 49.7287 2.13411 49.7727 2.15545C55.4465 4.90567 55.9492 9.23956 60.0096 13.9407Z" fill="url(#paint0_linear_14_967)" fill-opacity="0.7"/>
<g clip-path="url(#clip0_14_967)">
<path d="M3.11811 48.8403C3.09192 50.9129 3.33561 52.9802 3.84308 54.9903C4.91903 59.3504 7.54274 65.3169 8.44607 67.342C8.00444 67.9602 7.78967 68.7111 7.83787 69.4685C7.88607 70.226 8.1943 70.9438 8.71075 71.5013C8.16538 72.1011 7.85669 72.8777 7.84193 73.6871C7.84053 74.1535 7.93532 74.6152 8.12041 75.0435C8.3055 75.4719 8.57695 75.8577 8.91788 76.177C8.424 76.7667 8.1496 77.5085 8.14113 78.2767C8.17567 79.2435 8.59034 80.158 9.29552 80.8225C10.0007 81.4869 10.9398 81.8481 11.9098 81.8279L25.5404 82.0057H25.598C26.6236 82.0121 27.6116 81.6213 28.354 80.9157C28.685 80.6017 28.9479 80.2233 29.1263 79.8039C29.3046 79.3844 29.3947 78.933 29.3909 78.4774C29.3872 78.0218 29.2896 77.5719 29.1043 77.1555C28.919 76.7391 28.6499 76.365 28.3137 76.0565C28.8297 75.4407 29.1052 74.6598 29.0893 73.8575C29.0734 73.0552 28.7674 72.2857 28.2274 71.6907C28.7797 71.0812 29.0855 70.289 29.0855 69.4676C29.0855 68.6462 28.7797 67.854 28.2274 67.2445C29.1826 65.1276 31.7315 59.2816 32.7901 54.9903C33.3023 52.9808 33.5498 50.9135 33.5266 48.8403C33.566 46.8246 33.2018 44.8214 32.4553 42.9477C31.7089 41.0741 30.5952 39.3677 29.1795 37.9284C27.7638 36.489 26.0744 35.3456 24.2101 34.5651C22.3459 33.7845 20.3443 33.3825 18.3224 33.3825C16.3004 33.3825 14.2988 33.7845 12.4346 34.5651C10.5704 35.3456 8.88097 36.489 7.46523 37.9284C6.04949 39.3677 4.93583 41.0741 4.18941 42.9477C3.44298 44.8214 3.07878 46.8246 3.11811 48.8403ZM26.743 79.2463C26.5913 79.3936 26.4109 79.5083 26.2129 79.5832C26.015 79.6582 25.8037 79.6919 25.5922 79.6823L11.9386 79.5331C11.5767 79.5606 11.2183 79.4466 10.9391 79.2154C10.6599 78.9841 10.4819 78.6537 10.4426 78.2939C10.4642 78.0165 10.5768 77.7538 10.7629 77.5465C10.949 77.3391 11.1984 77.1986 11.4725 77.1465C11.725 77.0775 11.9464 76.9248 12.1 76.7134C12.2537 76.5021 12.3305 76.2448 12.3178 75.9841C12.305 75.7234 12.2035 75.4748 12.03 75.2793C11.8564 75.0839 11.6212 74.9533 11.3632 74.9091C11.0506 74.88 10.7578 74.7432 10.5352 74.5223C10.3127 74.3014 10.1741 74.0102 10.1434 73.6986C10.1605 73.4295 10.2635 73.1729 10.4375 72.9664C10.6114 72.7599 10.8471 72.6144 11.1101 72.5512C11.3424 72.4771 11.5451 72.3314 11.689 72.1349C11.8328 71.9385 11.9104 71.7015 11.9104 71.4583C11.9104 71.2151 11.8328 70.9781 11.689 70.7817C11.5451 70.5853 11.3424 70.4395 11.1101 70.3654C10.8467 70.3011 10.6104 70.1555 10.4348 69.9495C10.2592 69.7435 10.1532 69.4875 10.1319 69.218C10.1372 69.0238 10.197 68.835 10.3045 68.673H26.4668C26.6757 68.8751 26.7958 69.1516 26.8005 69.4418C26.7785 69.7046 26.6737 69.9538 26.5011 70.1537C26.3286 70.3536 26.097 70.4939 25.8396 70.5547C25.6073 70.6288 25.4045 70.7746 25.2607 70.971C25.1168 71.1675 25.0393 71.4044 25.0393 71.6476C25.0393 71.8909 25.1168 72.1278 25.2607 72.3242C25.4045 72.5207 25.6073 72.6665 25.8396 72.7405C26.1023 72.8051 26.3379 72.9509 26.5125 73.1569C26.6871 73.363 26.792 73.6189 26.812 73.8879C26.7936 74.1655 26.6829 74.4291 26.4974 74.6369C26.3119 74.8447 26.0622 74.9849 25.7878 75.0353C25.5323 75.1014 25.3072 75.253 25.1505 75.4648C24.9938 75.6767 24.9149 75.9358 24.927 76.1988C24.9391 76.4618 25.0416 76.7126 25.2172 76.9091C25.3928 77.1057 25.6308 77.2361 25.8914 77.2785C26.2045 77.3065 26.4978 77.4429 26.7206 77.664C26.9434 77.8851 27.0816 78.177 27.1112 78.489C27.108 78.6375 27.0736 78.7837 27.0101 78.9181C26.9467 79.0525 26.8557 79.1721 26.743 79.2692V79.2463ZM18.3252 35.9722C21.7461 35.9768 25.0255 37.3341 27.4438 39.7466C29.8622 42.159 31.2221 45.4294 31.2251 48.8403C31.2498 50.7271 31.0293 52.6092 30.5692 54.4396C29.5508 58.5702 26.9731 64.4506 26.087 66.4069H10.5519C9.66587 64.4506 7.0997 58.5759 6.06978 54.4453C5.60936 52.6131 5.39079 50.7289 5.41961 48.8403C5.42265 45.4284 6.78333 42.1571 9.20295 39.7445C11.6226 37.332 14.9034 35.9752 18.3252 35.9722Z" fill="#082755"/>
<path d="M2.39267 22.4042C2.28601 22.2639 2.15237 22.1461 1.99955 22.0579C1.84673 21.9696 1.6778 21.9126 1.50263 21.8901C1.32747 21.8677 1.14957 21.8803 0.979341 21.9272C0.809112 21.9741 0.649963 22.0544 0.511194 22.1633C0.371169 22.2725 0.254209 22.4082 0.167062 22.5627C0.0799154 22.7171 0.0243072 22.8873 0.00344571 23.0633C-0.0174158 23.2393 -0.00311769 23.4177 0.0455151 23.5881C0.0941479 23.7586 0.176153 23.9178 0.286799 24.0565L7.15101 32.748C7.27664 32.9067 7.43658 33.035 7.6189 33.1234C7.80122 33.2118 8.00121 33.258 8.20395 33.2586H8.24998C8.53433 33.2512 8.80873 33.1526 9.03248 32.9775C9.31265 32.7571 9.49454 32.4356 9.53881 32.0825C9.55963 31.9076 9.54544 31.7304 9.49704 31.561C9.44864 31.3916 9.36701 31.2335 9.25688 31.0958L2.39267 22.4042ZM8.31902 32.0653C8.28843 32.0919 8.25012 32.1079 8.2097 32.1112C8.17967 32.1124 8.14981 32.1062 8.12273 32.0932C8.09565 32.0802 8.07217 32.0608 8.05435 32.0366L1.19014 23.3451C1.16065 23.3055 1.14636 23.2566 1.14986 23.2074C1.15329 23.1825 1.16167 23.1585 1.17451 23.1368C1.18735 23.1151 1.2044 23.0962 1.22466 23.0812C1.25656 23.0538 1.29767 23.0395 1.33973 23.041C1.36448 23.0431 1.38851 23.0503 1.41031 23.0621C1.43211 23.074 1.45118 23.0903 1.46632 23.1099L8.35354 31.8014C8.36947 31.8203 8.38128 31.8423 8.38822 31.866C8.39515 31.8897 8.39706 31.9146 8.39382 31.9391C8.39039 31.964 8.38201 31.988 8.36917 32.0097C8.35633 32.0314 8.33928 32.0503 8.31902 32.0653Z" fill="#082755"/>
<path d="M27.254 32.9316C27.4735 33.0784 27.732 33.1563 27.9963 33.1553H28.0423C28.254 33.1496 28.4614 33.0947 28.6482 32.9952C28.835 32.8956 28.9959 32.754 29.1182 32.5816L34.7742 24.0909C34.8731 23.9454 34.9419 23.7816 34.9765 23.6092C35.0111 23.4368 35.0107 23.2592 34.9755 23.0869C34.9027 22.7397 34.6961 22.4348 34.4002 22.2379C34.1037 22.0431 33.742 21.9731 33.394 22.0429C33.0459 22.1127 32.7396 22.3168 32.5417 22.6108L26.88 31.1015C26.6851 31.3975 26.6148 31.7582 26.6844 32.1055C26.759 32.4443 26.9634 32.7408 27.254 32.9316ZM27.8294 31.7096L33.4911 23.2246C33.5038 23.203 33.5213 23.1846 33.5423 23.1707C33.5632 23.1568 33.587 23.1477 33.6119 23.1443C33.6337 23.1348 33.6572 23.1299 33.6809 23.1299C33.7047 23.1299 33.7282 23.1348 33.75 23.1443C33.7718 23.1576 33.7906 23.1751 33.8054 23.1958C33.8203 23.2165 33.8308 23.2399 33.8363 23.2648C33.8535 23.311 33.8535 23.3619 33.8363 23.4082L28.1574 31.9161C28.1408 31.9424 28.1179 31.964 28.0908 31.9791C28.0636 31.9941 28.0331 32.0021 28.002 32.0022C27.9639 32.0008 27.9266 31.991 27.8927 31.9735C27.8505 31.9434 27.8217 31.8981 27.8121 31.8473C27.8076 31.8236 27.8078 31.7992 27.8128 31.7756C27.8177 31.752 27.8273 31.7295 27.8409 31.7096H27.8294Z" fill="#082755"/>
<path d="M18.0426 30.9466H18.1462C18.4835 30.934 18.8038 30.7955 19.0436 30.5586C19.2834 30.3216 19.4251 30.0035 19.4408 29.6673L19.9183 18.3941C19.892 18.0692 19.7476 17.7651 19.5122 17.539C19.2768 17.3129 18.9666 17.1803 18.64 17.1662C18.3135 17.1521 17.993 17.2574 17.7388 17.4624C17.4847 17.6674 17.3145 17.958 17.2601 18.2794L16.7825 29.5583C16.7748 29.7335 16.8019 29.9086 16.8623 30.0734C16.9227 30.2382 17.0152 30.3895 17.1345 30.5185C17.2537 30.6475 17.3974 30.7518 17.5572 30.8253C17.717 30.8987 17.8898 30.94 18.0656 30.9466H18.0426ZM17.9103 29.6214L18.4108 18.331C18.4117 18.305 18.4177 18.2794 18.4285 18.2558C18.4394 18.2321 18.4549 18.2109 18.4741 18.1933C18.5047 18.1668 18.543 18.1507 18.5835 18.1474C18.6089 18.1467 18.6342 18.1521 18.6572 18.1631C18.6802 18.174 18.7003 18.1903 18.7158 18.2105C18.7348 18.2277 18.7494 18.2491 18.7584 18.2731C18.7674 18.297 18.7706 18.3228 18.7676 18.3482L18.29 29.6214C18.2885 29.6706 18.2679 29.7173 18.2324 29.7515C18.197 29.7858 18.1495 29.805 18.1001 29.8049C18.0749 29.8044 18.05 29.7985 18.0272 29.7876C18.0043 29.7767 17.9841 29.7611 17.9678 29.7418C17.9507 29.7266 17.9367 29.7081 17.9268 29.6874C17.917 29.6667 17.9113 29.6443 17.9103 29.6214Z" fill="#082755"/>
<path d="M10.173 46.6946C10.5029 46.7154 10.8281 46.6073 11.0794 46.3931C11.3308 46.1789 11.4886 45.8755 11.5193 45.5472C11.5368 45.2067 11.5869 44.8686 11.6689 44.5375C11.8909 43.7217 12.3418 42.986 12.9686 42.4169C13.5954 41.8478 14.3721 41.469 15.2075 41.3248C15.5844 41.2307 15.97 41.175 16.3582 41.1584C16.5237 41.1547 16.6868 41.1185 16.8383 41.0519C16.9898 40.9853 17.1266 40.8896 17.2409 40.7702C17.3552 40.6509 17.4449 40.5103 17.5047 40.3564C17.5645 40.2025 17.5934 40.0383 17.5895 39.8733C17.5805 39.5401 17.4402 39.2238 17.1989 38.9929C16.9577 38.7621 16.635 38.6352 16.3007 38.6399C13.9359 38.6915 9.3962 40.1545 9.02221 45.3349C9.00801 45.4996 9.02654 45.6654 9.07672 45.8229C9.1269 45.9805 9.20775 46.1265 9.31465 46.2528C9.42155 46.3791 9.55238 46.4832 9.69966 46.559C9.84695 46.6348 10.0078 46.6809 10.173 46.6946Z" fill="#082755"/>
</g>
<defs>
<linearGradient id="paint0_linear_14_967" x1="47.58" y1="0.437012" x2="47.58" y2="59.2108" gradientUnits="userSpaceOnUse">
<stop stop-color="#F7744A"/>
<stop offset="1" stop-color="#FFB423"/>
</linearGradient>
<clipPath id="clip0_14_967">
<rect width="35" height="65" fill="white" transform="translate(0 17)"/>
</clipPath>
</defs>
</svg>
