<svg width="95" height="79" viewBox="0 0 95 79" fill="none" xmlns="http://www.w3.org/2000/svg">
<path d="M70.0096 13.9407C78.7379 24.0464 90.3819 20.1318 93.4391 28.2385C94.8168 31.8847 94.1657 36.4933 91.9483 38.8717C86.9755 44.2021 79.6154 45.7661 72.9159 48.1722C71.2834 48.7552 71.3306 48.7737 69.868 49.3382C52.8738 55.9087 51.515 57.9262 46.1365 58.7961C44.4852 59.0644 34.1905 60.7395 27.2362 54.6964C20.414 48.7737 20.9047 38.9364 21.0839 35.4013C21.9804 17.3278 38.1537 0.633107 51.5056 0.438768C55.6857 0.378982 59.1344 1.86412 59.6413 2.09348C59.6859 2.11365 59.7287 2.13411 59.7727 2.15545C65.4465 4.90567 65.9492 9.23956 70.0096 13.9407Z" fill="url(#paint0_linear_14_966)" fill-opacity="0.7"/>
<g clip-path="url(#clip0_14_966)">
<path d="M34.3619 29H0.983033C0.711233 29.0177 0.456923 29.1397 0.273648 29.3404C0.0903737 29.541 -0.00756406 29.8047 0.000456459 30.0759V70.6161C-0.00612955 70.8869 0.0923004 71.1498 0.27529 71.3501C0.458279 71.5505 0.711753 71.6729 0.983033 71.692H25.6394V77.8669C25.6394 78.6109 26.5013 79.2919 27.1219 78.794L29.2019 77.0771L30.7361 75.8353C30.8683 75.7266 31.0579 75.6064 31.2246 75.4977C31.3193 75.5574 31.4078 75.6264 31.4889 75.7037C31.9371 76.1501 32.4829 76.5163 32.9656 76.9169L35.264 78.7711C35.3397 78.844 35.4303 78.8997 35.5296 78.9344C35.6289 78.9691 35.7346 78.982 35.8394 78.9722C35.9442 78.9625 36.0457 78.9302 36.1368 78.8777C36.2279 78.8252 36.3065 78.7537 36.3673 78.6681C36.4904 78.5698 36.5884 78.4439 36.6533 78.3007C36.7183 78.1575 36.7482 78.001 36.7408 77.844V71.692H61.0409C61.1657 71.6939 61.2894 71.6688 61.4035 71.6184C61.5176 71.568 61.6193 71.4935 61.7017 71.4001C61.7017 71.4001 61.7017 71.4001 61.7361 71.3658C61.9186 71.166 62.0155 70.9032 62.0062 70.6333V30.0759C62.0156 29.8034 61.9174 29.5381 61.7326 29.3369C61.5478 29.1358 61.2912 29.0148 61.0179 29H34.3619ZM25.6394 69.546H1.96561V31.146H25.6394V69.546ZM34.7526 75.7266L31.69 73.2314C31.5439 73.1308 31.3706 73.0768 31.1929 73.0768C31.0153 73.0768 30.842 73.1308 30.6959 73.2314L27.5815 75.738V31.146H34.7526V75.7266ZM36.7178 31.146H60.0296V69.546H36.7178V31.146Z" fill="#082755"/>
<path d="M6.4421 41.2239H20.3476C21.1922 41.2239 21.1922 39.7932 20.3476 39.7932H6.4421C5.59743 39.7932 5.59743 41.2239 6.4421 41.2239Z" fill="#082755"/>
<path d="M6.4421 47.2385H20.3476C21.1922 47.2385 21.1922 45.8078 20.3476 45.8078H6.4421C5.59743 45.8078 5.59743 47.2385 6.4421 47.2385Z" fill="#082755"/>
<path d="M6.4421 53.2532H20.3476C21.1922 53.2532 21.1922 51.8225 20.3476 51.8225H6.4421C5.59743 51.8225 5.59743 53.2532 6.4421 53.2532Z" fill="#082755"/>
<path d="M6.4421 59.2735H20.3476C21.1922 59.2735 21.1922 57.8428 20.3476 57.8428H6.4421C5.59743 57.8428 5.59743 59.2735 6.4421 59.2735Z" fill="#082755"/>
<path d="M55.6347 39.7932H41.7292C40.8845 39.7932 40.8845 41.2239 41.7292 41.2239H55.6347C56.4794 41.2239 56.4794 39.7932 55.6347 39.7932Z" fill="#082755"/>
<path d="M55.6347 45.8078H41.7292C40.8845 45.8078 40.8845 47.2385 41.7292 47.2385H55.6347C56.4794 47.2385 56.4794 45.8078 55.6347 45.8078Z" fill="#082755"/>
<path d="M55.6347 51.8225H41.7292C40.8845 51.8225 40.8845 53.2532 41.7292 53.2532H55.6347C56.4794 53.2532 56.4794 51.8225 55.6347 51.8225Z" fill="#082755"/>
<path d="M55.6347 57.8428H41.7292C40.8845 57.8428 40.8845 59.2735 41.7292 59.2735H55.6347C56.4794 59.2735 56.4794 57.8428 55.6347 57.8428Z" fill="#082755"/>
</g>
<defs>
<linearGradient id="paint0_linear_14_966" x1="57.58" y1="0.437012" x2="57.58" y2="59.2108" gradientUnits="userSpaceOnUse">
<stop stop-color="#F7744A"/>
<stop offset="1" stop-color="#FFB423"/>
</linearGradient>
<clipPath id="clip0_14_966">
<rect width="62" height="50" fill="white" transform="translate(0 29)"/>
</clipPath>
</defs>
</svg>
