<svg width="86" height="83" viewBox="0 0 86 83" fill="none" xmlns="http://www.w3.org/2000/svg">
<path d="M61.0096 13.8793C69.7379 23.985 81.3819 20.0704 84.4391 28.1772C85.8168 31.8234 85.1657 36.432 82.9483 38.8103C77.9755 44.1408 70.6154 45.7048 63.9159 48.1109C62.2834 48.6939 62.3306 48.7124 60.868 49.2769C43.8738 55.8475 42.515 57.8649 37.1365 58.7348C35.4852 59.0032 25.1905 60.6782 18.2362 54.6351C11.414 48.7124 11.9047 38.8751 12.0839 35.34C12.9804 17.2664 29.1537 0.571706 42.5056 0.377366C46.6857 0.317581 50.1344 1.80272 50.6413 2.03209C50.6859 2.05225 50.7287 2.07271 50.7727 2.09405C56.4465 4.84428 56.9492 9.17817 61.0096 13.8793Z" fill="url(#paint0_linear_14_968)" fill-opacity="0.7"/>
<g clip-path="url(#clip0_14_968)">
<path d="M49.0013 44.3084C49.0024 40.0436 47.7354 35.8742 45.3604 32.3276C42.9855 28.781 39.6093 26.0165 35.6589 24.3837C31.7085 22.7508 27.3613 22.323 23.1671 23.1544C18.9729 23.9857 15.1201 26.0389 12.096 29.0542C9.07185 32.0695 7.01221 35.9114 6.17755 40.0942C5.3429 44.277 5.77072 48.6127 7.4069 52.553C9.04309 56.4933 11.8141 59.8611 15.3696 62.2306C18.9251 64.6002 23.1053 65.8649 27.3815 65.8649C33.1127 65.859 38.6075 63.5862 42.6605 59.545C46.7136 55.5038 48.9939 50.0242 49.0013 44.3084ZM46.7707 44.3084C46.7719 45.2802 46.6992 46.2507 46.5532 47.2115C43.5903 49.29 40.31 50.8769 36.8391 51.911C37.0616 50.9734 37.2219 50.0222 37.3187 49.0635C37.6447 44.8309 37.0139 40.5794 35.4729 36.6223C38.2314 35.8999 40.8638 34.7635 43.2799 33.2521C45.5465 36.4964 46.7645 40.3542 46.7707 44.3084ZM36.209 48.9523C36.0995 50.0622 35.8999 51.1614 35.6123 52.2391C30.1872 53.5205 24.5021 53.1583 19.2845 51.1991L18.8775 51.0323C18.7399 50.3464 18.634 49.6512 18.5596 48.9467C18.1191 44.4975 19.1507 40.0816 20.6619 36.2608C23.3146 37.0446 26.0648 37.4509 28.8314 37.4677C30.6843 37.4767 32.5329 37.2903 34.3465 36.9115C35.7238 40.5655 36.6216 44.7255 36.209 48.9523ZM42.3821 32.0396L42.633 32.3566C40.2924 33.8056 37.7447 34.8913 35.077 35.5768C33.5347 31.8223 31.5103 28.2834 29.0544 25.0488C31.6319 25.2656 34.1395 25.9961 36.4288 27.1969C38.718 28.3977 40.7424 30.0445 42.3821 32.0396ZM27.3815 24.9709H27.5767C30.1717 28.2927 32.3096 31.9456 33.9338 35.8326C29.6724 36.6654 25.2724 36.4593 21.108 35.232C22.7009 31.5746 24.7446 28.1296 27.1919 24.9765L27.3815 24.9709ZM25.7086 25.0488C23.4107 28.0932 21.4879 31.4019 19.9816 34.9038C17.4673 34.0916 15.064 32.9707 12.8271 31.5669C16.1155 27.8133 20.7347 25.477 25.7142 25.0488H25.7086ZM7.99787 44.3084C8.00274 39.9931 9.451 35.8028 12.1133 32.4011C14.4368 33.8843 16.9379 35.0708 19.5578 35.9327C18.0243 39.8592 16.9926 44.3918 17.4499 49.0635C17.5001 49.5696 17.5726 50.0646 17.6562 50.5596C14.1461 49.0777 10.8894 47.0586 8.00345 44.5753C8.00345 44.4864 7.99787 44.3974 7.99787 44.3084ZM8.08152 46.1103C11.0494 48.5189 14.3684 50.4619 17.9239 51.8721C18.9388 56.2101 21.3144 60.1087 25.0171 63.4957C20.6328 62.9503 16.5658 60.9307 13.487 57.7702C10.4082 54.6096 8.50155 50.4969 8.08152 46.1103ZM27.3815 63.6403H26.8741C22.9315 60.3645 20.3552 56.5938 19.1897 52.3392C22.3973 53.4732 25.774 54.0579 29.1771 54.0689C31.2187 54.0654 33.2541 53.8473 35.2498 53.4182C33.9617 57.2223 31.4969 60.6482 27.8945 63.6292L27.3815 63.6403ZM29.7515 63.4957C32.9132 60.7176 35.2508 57.1283 36.5101 53.1179C39.9673 52.1898 43.254 50.7179 46.2465 48.7576C45.3288 52.5971 43.2576 56.0656 40.3099 58.6993C37.3622 61.333 33.6786 63.0064 29.7515 63.4957Z" fill="#082755"/>
<path d="M23.2042 73.7234H16.7802C16.1695 73.7234 15.5647 73.8433 15.0004 74.0764C14.4362 74.3095 13.9235 74.6512 13.4916 75.0819C13.0598 75.5126 12.7172 76.0239 12.4835 76.5867C12.2498 77.1494 12.1295 77.7526 12.1295 78.3617C12.1295 78.9708 12.2498 79.5739 12.4835 80.1367C12.7172 80.6994 13.0598 81.2108 13.4916 81.6415C13.9235 82.0722 14.4362 82.4138 15.0004 82.6469C15.5647 82.88 16.1695 83 16.7802 83H37.9706C39.204 83 40.387 82.5113 41.2592 81.6415C42.1313 80.7716 42.6213 79.5918 42.6213 78.3617C42.6213 77.1315 42.1313 75.9518 41.2592 75.0819C40.387 74.212 39.204 73.7234 37.9706 73.7234H31.5633V72.6556C31.5625 72.0687 31.4371 71.4887 31.1952 70.9537C33.788 70.5793 36.3375 69.9515 38.807 69.0795C39.1263 68.94 39.3815 68.6863 39.5225 68.3684C39.6634 68.0505 39.6799 67.6915 39.5686 67.3621C39.4574 67.0328 39.2265 66.7569 38.9214 66.5889C38.6163 66.4208 38.2592 66.3729 37.9204 66.4544C33.2697 68.0673 28.9033 68.7235 24.9441 68.401C12.9548 67.4277 2.82241 56.0377 2.78896 43.5409C2.77376 41.5696 2.99466 39.6036 3.44697 37.6846C4.18231 34.6631 5.57809 31.841 7.53449 29.4202C9.50058 26.9604 12.0128 24.9899 14.8731 23.664C15.0464 23.5948 15.2039 23.4915 15.3365 23.3604C15.469 23.2293 15.5738 23.0729 15.6446 22.9007C15.7154 22.7284 15.7508 22.5437 15.7487 22.3575C15.7466 22.1714 15.707 21.9875 15.6323 21.8169C15.5576 21.6463 15.4493 21.4923 15.3138 21.3642C15.1783 21.2362 15.0184 21.1365 14.8436 21.0712C14.6687 21.0059 14.4826 20.9763 14.296 20.9841C14.1095 20.992 13.9265 21.0371 13.7578 21.1168C10.4864 22.6181 7.61373 24.864 5.37084 27.6738C3.15171 30.4204 1.56924 33.6224 0.736833 37.0506C0.231702 39.1787 -0.0154284 41.3596 0.000745265 43.5465C0.0397802 57.0332 10.6963 69.3464 23.5277 71.0538C23.3142 71.5629 23.2042 72.1093 23.2042 72.6611V73.7234ZM24.3195 75.948C24.6153 75.948 24.899 75.8308 25.1081 75.6222C25.3173 75.4136 25.4348 75.1307 25.4348 74.8357V72.6556C25.4354 72.3904 25.4907 72.1281 25.5972 71.8851C25.7037 71.6421 25.8591 71.4235 26.0538 71.2429C26.3382 71.2429 26.6114 71.2429 26.9014 71.2429C27.459 71.2429 28.0724 71.2429 28.6635 71.1817C28.8721 71.3636 29.0396 71.5875 29.155 71.8387C29.2703 72.0898 29.3309 72.3626 29.3327 72.6389V74.8357C29.3327 75.1307 29.4502 75.4136 29.6594 75.6222C29.8685 75.8308 30.1522 75.948 30.448 75.948H37.9873C38.6292 75.948 39.2448 76.2023 39.6986 76.6549C40.1525 77.1076 40.4075 77.7215 40.4075 78.3617C40.4075 79.0018 40.1525 79.6158 39.6986 80.0684C39.2448 80.5211 38.6292 80.7754 37.9873 80.7754H16.7969C16.1551 80.7754 15.5395 80.5211 15.0856 80.0684C14.6317 79.6158 14.3768 79.0018 14.3768 78.3617C14.3768 77.7215 14.6317 77.1076 15.0856 76.6549C15.5395 76.2023 16.1551 75.948 16.7969 75.948H24.3195Z" fill="#082755"/>
</g>
<defs>
<linearGradient id="paint0_linear_14_968" x1="48.58" y1="0.37561" x2="48.58" y2="59.1495" gradientUnits="userSpaceOnUse">
<stop stop-color="#F7744A"/>
<stop offset="1" stop-color="#FFB423"/>
</linearGradient>
<clipPath id="clip0_14_968">
<rect width="49" height="62" fill="white" transform="translate(0 21)"/>
</clipPath>
</defs>
</svg>
