<svg width="203" height="283" viewBox="0 0 203 283" fill="none" xmlns="http://www.w3.org/2000/svg">
<path d="M100.723 188.921C78.341 144.158 32.207 148.605 28.6397 116.081C27.0258 101.451 33.7122 85.011 44.0254 78.1415C67.1506 62.7477 95.4597 63.2947 122.147 60.1687C128.647 59.419 128.492 59.3103 134.355 58.4831C202.489 48.8308 209.333 42.5557 229.765 43.9623C236.039 44.3893 275.156 47.0447 294.869 75.301C314.212 103 303.219 138.863 299.258 151.748C279.08 217.641 204.469 265.339 155.585 254.599C139.64 251.092 128.161 242.079 127.303 241.393C127.265 241.362 127.232 241.335 127.194 241.303C108.902 226.256 111.165 209.805 100.723 188.921Z" fill="#FCCA5A" fill-opacity="0.29"/>
</svg>
