<svg width="201" height="177" viewBox="0 0 201 177" fill="none" xmlns="http://www.w3.org/2000/svg">
<path d="M62.7321 118.054C48.7916 90.1746 20.0579 92.9443 17.8361 72.6873C16.8309 63.5749 20.9954 53.3358 27.4188 49.0572C41.8218 39.4695 59.4537 39.8102 76.0757 37.8632C80.1239 37.3963 80.0275 37.3286 83.6791 36.8134C126.115 30.8016 130.377 26.8933 143.103 27.7694C147.011 28.0353 171.374 29.6892 183.652 47.2881C195.699 64.5401 188.853 86.8764 186.385 94.9016C173.818 135.942 127.348 165.65 96.9019 158.961C87.0812 156.8 79.9803 151.287 79.3072 150.751C79.2688 150.721 79.2349 150.693 79.197 150.662C67.8277 141.295 69.2316 131.053 62.7321 118.054Z" fill="#FFA843" fill-opacity="0.2"/>
</svg>
