<?xml version="1.0" encoding="utf-8"?>
<!-- Generator: Adobe Illustrator 24.0.1, SVG Export Plug-In . SVG Version: 6.00 Build 0)  -->
<svg version="1.1" id="Слой_1" xmlns="http://www.w3.org/2000/svg" xmlns:xlink="http://www.w3.org/1999/xlink" x="0px" y="0px"
	 viewBox="0 0 109 88" style="enable-background:new 0 0 109 88;" xml:space="preserve">
<style type="text/css">
	.st0{fill:url(#SVGID_1_);}
	.st1{fill:#333333;}
</style>
<linearGradient id="SVGID_1_" gradientUnits="userSpaceOnUse" x1="54.3126" y1="90.0001" x2="54.3126" y2="2.735" gradientTransform="matrix(1 0 0 -1 0 90)">
	<stop  offset="0" style="stop-color:#FF835B"/>
	<stop  offset="1" style="stop-color:#FFC75A"/>
</linearGradient>
<path class="st0" d="M72.8,20c13,15,30.2,9.2,34.8,21.2c2,5.4,1.1,12.3-2.2,15.8C98,65,87,67.3,77.1,70.9c-2.4,0.9-2.4,0.9-4.5,1.7
	c-25.2,9.8-27.2,12.8-35.2,14c-2.5,0.4-17.7,2.9-28.1-6.1c-10.1-8.8-9.4-23.4-9.1-28.6C1.5,25.1,25.5,0.3,45.3,0
	c6.3-0.1,11.5,2.2,12.1,2.5c0,0,0.1,0,0.1,0.1C66,6.6,66.7,13.1,72.8,20z"/>
<path class="st1" d="M49.9,36.5c-1.9,0-3.8,0.8-5.2,2.2c-1.4,1.4-2.1,3.3-2.1,5.3c0,2,0.8,3.9,2.1,5.3c1.4,1.4,3.2,2.2,5.2,2.2
	c1.9,0,3.8-0.8,5.2-2.2c1.4-1.4,2.1-3.3,2.1-5.3c0-2-0.8-3.9-2.1-5.3C53.7,37.3,51.8,36.5,49.9,36.5z M49.9,48.8
	c-1.3,0-2.5-0.5-3.4-1.4c-0.9-0.9-1.4-2.1-1.4-3.4c0-1.3,0.5-2.5,1.4-3.4c0.9-0.9,2.1-1.4,3.4-1.4c1.3,0,2.5,0.5,3.4,1.4
	c0.9,0.9,1.4,2.1,1.4,3.4c0,1.3-0.5,2.5-1.4,3.4C52.4,48.3,51.2,48.8,49.9,48.8z"/>
<path class="st1" d="M57.5,38c0.9,0,1.7-0.8,1.7-1.7c0-1-0.8-1.7-1.7-1.7c-0.9,0-1.7,0.8-1.7,1.7C55.8,37.2,56.6,38,57.5,38z"/>
<path class="st1" d="M63.4,34.5c-0.4-1-0.9-1.8-1.6-2.6c-0.7-0.7-1.6-1.3-2.5-1.7c-1.1-0.4-2.3-0.7-3.5-0.7c-1.5-0.1-2-0.1-5.9-0.1
	s-4.4,0-5.9,0.1c-1.2,0-2.4,0.3-3.5,0.7c-0.9,0.4-1.8,0.9-2.5,1.7c-0.7,0.7-1.3,1.6-1.6,2.6c-0.4,1.1-0.6,2.3-0.7,3.5
	c-0.1,1.5-0.1,2-0.1,6c0,3.9,0,4.4,0.1,6c0,1.2,0.2,2.4,0.7,3.5c0.4,1,0.9,1.8,1.6,2.6c0.7,0.7,1.6,1.3,2.5,1.7
	c1.1,0.4,2.3,0.7,3.5,0.7c1.5,0.1,2,0.1,5.9,0.1s4.4,0,5.9-0.1c1.2,0,2.4-0.3,3.5-0.7c0.9-0.4,1.8-0.9,2.5-1.7
	c0.7-0.7,1.3-1.6,1.6-2.6c0.4-1.1,0.6-2.3,0.7-3.5c0.1-1.5,0.1-2,0.1-6c0-3.9,0-4.4-0.1-6C64.1,36.8,63.8,35.6,63.4,34.5z
	 M61.5,49.8c0,0.9-0.2,1.8-0.5,2.7c-0.2,0.6-0.6,1.2-1.1,1.7c-0.5,0.5-1,0.8-1.6,1.1c-0.8,0.3-1.7,0.5-2.6,0.5
	c-1.5,0.1-1.9,0.1-5.8,0.1c-3.9,0-4.3,0-5.8-0.1c-0.9,0-1.8-0.2-2.6-0.5c-0.6-0.2-1.2-0.6-1.6-1.1c-0.5-0.5-0.8-1-1.1-1.7
	c-0.3-0.9-0.5-1.8-0.5-2.7c-0.1-1.5-0.1-2-0.1-5.9c0-3.9,0-4.3,0.1-5.9c0-0.9,0.2-1.8,0.5-2.7c0.5-1.3,1.5-2.3,2.7-2.8
	c0.8-0.3,1.7-0.5,2.6-0.5C45.6,32,46,32,49.8,32s4.3,0,5.8,0.1c0.9,0,1.8,0.2,2.6,0.5c0.6,0.2,1.2,0.6,1.6,1.1
	c0.5,0.5,0.8,1,1.1,1.7c0.3,0.9,0.5,1.8,0.5,2.7c0.1,1.5,0.1,2,0.1,5.9C61.6,47.9,61.6,48.3,61.5,49.8L61.5,49.8L61.5,49.8z"/>
</svg>
