<svg width="27" height="21" viewBox="0 0 27 21" fill="none" xmlns="http://www.w3.org/2000/svg">
<path d="M26.0808 0.0661621H0.919991C0.682753 0.0664402 0.455316 0.16083 0.287596 0.328615C0.119876 0.496401 0.0255759 0.723874 0.0253906 0.961112V2.76151C0.0253906 2.84446 0.115341 2.93966 0.188841 2.97816L13.4139 10.5322C13.4478 10.5516 13.4862 10.5616 13.5252 10.5613C13.5651 10.5614 13.6043 10.5507 13.6386 10.5305L26.464 2.98551C26.5361 2.94526 26.7272 2.83886 26.799 2.78986C26.8858 2.73071 26.9754 2.67716 26.9754 2.57111V0.960763C26.9751 0.723585 26.8808 0.496202 26.7131 0.328492C26.5454 0.160782 26.318 0.06644 26.0808 0.0661621Z" fill="#1E4B8F"/>
<path d="M26.8639 5.47614C26.8295 5.4565 26.7905 5.44629 26.7509 5.44654C26.7112 5.44678 26.6724 5.45748 26.6382 5.47754L19.3802 9.74789C19.3513 9.76474 19.3266 9.78789 19.3078 9.81561C19.2891 9.84334 19.2768 9.87493 19.2719 9.90805C19.267 9.94117 19.2697 9.97496 19.2796 10.0069C19.2896 10.0389 19.3066 10.0682 19.3295 10.0926L26.5885 17.9176C26.6093 17.9402 26.6346 17.9582 26.6627 17.9705C26.6908 17.9828 26.7212 17.9891 26.7519 17.989C26.8112 17.9889 26.8681 17.9653 26.91 17.9234C26.9519 17.8815 26.9755 17.8246 26.9756 17.7653V5.67039C26.9757 5.63104 26.9655 5.59236 26.9459 5.55825C26.9263 5.52414 26.898 5.49581 26.8639 5.47614Z" fill="#1E4B8F"/>
<path d="M17.2886 11.1819C17.2541 11.1444 17.2078 11.1198 17.1574 11.1123C17.1071 11.1048 17.0556 11.1148 17.0117 11.1406L14.1025 12.8525C13.9321 12.9509 13.7389 13.0034 13.5421 13.0047C13.3452 13.006 13.1514 12.9561 12.9797 12.8598L10.4195 11.3972C10.3781 11.3736 10.3304 11.3638 10.2831 11.3693C10.2359 11.3747 10.1915 11.395 10.1566 11.4273L0.43431 20.4454C0.408822 20.4692 0.389252 20.4986 0.377161 20.5314C0.36507 20.5641 0.360792 20.5992 0.364667 20.6339C0.368543 20.6685 0.380465 20.7018 0.399483 20.7311C0.418502 20.7603 0.44409 20.7847 0.47421 20.8024C0.62541 20.8913 0.77136 20.9336 0.91976 20.9336H25.8233C25.8669 20.9337 25.9095 20.921 25.9459 20.897C25.9823 20.8731 26.0109 20.8389 26.0281 20.7989C26.0455 20.759 26.0509 20.715 26.0436 20.6721C26.0362 20.6292 26.0165 20.5895 25.9868 20.5577L17.2886 11.1819Z" fill="#1E4B8F"/>
<path d="M8.01729 10.3604C8.04305 10.3366 8.06284 10.3071 8.07507 10.2742C8.0873 10.2414 8.09164 10.2061 8.08772 10.1712C8.0838 10.1364 8.07174 10.1029 8.05252 10.0736C8.03329 10.0443 8.00744 10.0199 7.97705 10.0024L0.358944 5.65119C0.324946 5.63188 0.286476 5.62184 0.247381 5.62207C0.208285 5.6223 0.169936 5.63279 0.136167 5.6525C0.102398 5.6722 0.0743934 5.70042 0.054954 5.73434C0.0355145 5.76826 0.0253215 5.80669 0.0253942 5.84579V17.2628C0.0251475 17.3064 0.0376927 17.3491 0.0614768 17.3857C0.0852609 17.4222 0.11924 17.451 0.159208 17.4684C0.199176 17.4858 0.243379 17.4912 0.286345 17.4837C0.329311 17.4763 0.369155 17.4564 0.400944 17.4266L8.01729 10.3604Z" fill="#1E4B8F"/>
</svg>
