<svg width="337" height="82" viewBox="0 0 337 82" fill="none" xmlns="http://www.w3.org/2000/svg">
<path fill-rule="evenodd" clip-rule="evenodd" d="M266.241 37.5179C264.897 38.9782 263.33 40.1014 261.65 40.8877C259.859 41.674 258.068 42.1234 256.052 42.1234C252.246 42.1234 248.775 40.5508 246.312 38.0795C243.849 35.6083 242.281 32.1261 242.281 28.3069C242.281 24.4877 243.849 21.0055 246.312 18.5343C248.775 16.0631 252.246 14.4905 256.052 14.4905C257.844 14.4905 259.747 14.8275 261.426 15.6138C263.106 16.2877 264.673 17.411 265.905 18.6466L262.322 22.1288C261.538 21.2302 260.531 20.6686 259.523 20.2192C258.515 19.7699 257.284 19.5453 256.164 19.5453C253.813 19.5453 251.574 20.5562 250.007 22.1288C248.439 23.7014 247.431 25.8357 247.431 28.3069C247.431 30.6658 248.439 32.9124 250.007 34.485C251.574 36.0576 253.701 37.0686 256.164 37.0686C257.396 37.0686 258.627 36.8439 259.635 36.2823C260.755 35.8329 261.762 35.0466 262.546 34.148L266.241 37.5179Z" fill="#384B9C"/>
<path d="M324.237 30.2165H327.26C330.171 30.2165 331.402 31.7891 331.402 33.474C331.402 34.485 330.842 36.7315 327.26 36.7315H324.237V30.2165ZM324.237 19.8822H326.7C329.275 19.8822 330.283 21.4548 330.283 22.8028C330.283 24.1507 329.163 25.8356 326.812 25.8356H324.237V19.8822ZM318.751 41.674H327.484C334.201 41.674 337 38.1918 337 34.2603C337 30.6658 334.985 28.5315 332.298 27.7452C334.537 26.6219 335.657 24.4877 335.657 22.1288C335.657 18.8713 333.977 14.7151 325.468 14.7151C324.461 14.7151 320.43 14.8274 318.639 14.8274V41.674H318.751Z" fill="#384B9C"/>
<path d="M217.539 19.7699H219.331C222.913 19.7699 223.697 22.0165 223.697 23.4767C223.697 25.0493 222.69 27.1836 218.995 27.1836C218.435 27.1836 217.987 27.1836 217.539 27.0713V19.7699ZM212.053 41.674H217.539V32.126C218.099 32.126 218.547 32.2384 219.107 32.2384C225.936 32.2384 229.183 28.0822 229.183 23.4767C229.183 19.9945 227.392 14.7151 218.323 14.7151C216.42 14.7151 213.285 14.8274 211.941 14.9397V41.674H212.053Z" fill="#384B9C"/>
<path d="M142.412 30.2165H145.435C148.346 30.2165 149.578 31.7891 149.578 33.474C149.578 34.485 149.018 36.7315 145.435 36.7315H142.412V30.2165ZM142.412 19.8822H144.876C147.451 19.8822 148.458 21.4548 148.458 22.8028C148.458 24.1507 147.339 25.8356 144.988 25.8356H142.412V19.8822ZM136.926 41.674H145.659C152.377 41.674 155.176 38.1918 155.176 34.2603C155.176 30.6658 153.161 28.5315 150.474 27.7452C152.713 26.6219 153.832 24.4877 153.832 22.1288C153.832 18.8713 152.153 14.7151 143.644 14.7151C142.636 14.7151 138.606 14.8274 136.814 14.8274V41.674H136.926Z" fill="#384B9C"/>
<path d="M113.08 35.8329H103.899L101.212 41.674H94.3828C99.0851 32.126 103.787 22.6904 108.49 13.1425C113.192 22.6904 117.894 32.126 122.597 41.674H115.655L113.08 35.8329ZM108.602 24.7123L105.691 30.8904H111.401L108.602 24.7123Z" fill="#384B9C"/>
<path fill-rule="evenodd" clip-rule="evenodd" d="M194.922 35.159C193.691 37.2932 191.899 38.9782 189.884 40.2138C187.869 41.4494 185.517 42.0111 183.054 42.0111C179.248 42.0111 175.777 40.4384 173.314 37.9672C170.851 35.496 169.283 32.0138 169.283 28.1946C169.283 24.3754 170.851 20.8932 173.314 18.422C175.777 15.9508 179.248 14.3782 183.054 14.3782C185.741 14.3782 188.204 15.1645 190.444 16.5124C192.459 17.8604 194.25 19.6576 195.37 21.9042C194.474 22.4658 193.467 23.1398 192.907 23.4768L176.561 33.8111C176.673 33.9234 176.785 34.148 177.008 34.2604C178.576 35.833 180.703 36.8439 183.166 36.8439C184.734 36.8439 186.189 36.3946 187.533 35.7206C188.876 34.9343 189.884 33.9234 190.668 32.5754L194.922 35.159ZM188.204 21.2302C188.093 21.1179 187.869 21.0056 187.645 20.8932C186.301 19.9946 184.622 19.5453 182.942 19.5453C180.591 19.5453 178.352 20.5563 176.785 22.1289C175.217 23.7015 174.209 25.8357 174.209 28.3069C174.209 28.8686 174.209 29.4302 174.321 29.9919L188.204 21.2302Z" fill="#384B9C"/>
<path fill-rule="evenodd" clip-rule="evenodd" d="M284.378 34.148C285.161 35.0466 286.169 35.7206 287.289 36.2823C288.408 36.7316 289.64 37.0686 290.871 37.0686C293.223 37.0686 295.462 36.0576 297.029 34.485C298.149 33.3617 298.932 32.1261 299.268 30.5535H288.856V26.0603H299.268C298.821 24.6001 298.037 23.2521 297.029 22.1288C295.462 20.5562 293.334 19.5453 290.871 19.5453C289.64 19.5453 288.52 19.7699 287.513 20.2192C286.505 20.6686 285.497 21.3425 284.714 22.1288L281.131 18.6466C282.474 17.2987 283.93 16.2877 285.609 15.6138C287.289 14.9398 289.08 14.4905 290.983 14.4905C294.79 14.4905 298.261 16.0631 300.724 18.5343C303.187 21.0055 304.754 24.4877 304.754 28.3069C304.754 32.1261 303.187 35.6083 300.724 38.0795C298.261 40.5508 294.79 42.1234 290.983 42.1234C289.08 42.1234 287.177 41.674 285.385 40.8877C283.594 40.1014 282.026 38.9782 280.795 37.5179L284.378 34.148Z" fill="#384B9C"/>
<path fill-rule="evenodd" clip-rule="evenodd" d="M76.3574 6.73975H77.8129V75.0356H76.3574V6.73975Z" fill="#384B9C"/>
<path d="M96.8454 66.0494H94.8301V56.0521H96.7334V63.3535L101.548 56.0521H103.563V66.0494H101.66V58.748L96.8454 66.0494ZM118.118 60.096H120.245C120.581 60.096 120.805 60.096 121.029 60.096C121.253 60.096 121.477 59.9836 121.589 59.8713C121.701 59.759 121.924 59.6466 121.924 59.5343C122.036 59.422 122.036 59.1973 122.036 58.9727C122.036 58.748 122.036 58.411 121.924 58.2987C121.812 58.074 121.701 57.9617 121.477 57.8494C121.253 57.7371 121.029 57.6247 120.805 57.6247C120.581 57.6247 120.245 57.5124 120.021 57.5124C119.461 57.5124 119.013 57.6247 118.678 57.8494C118.342 58.074 118.118 58.2987 117.782 58.6357L116.214 57.6247C116.55 57.0631 117.11 56.6138 117.67 56.2768C118.342 55.9398 119.013 55.8275 119.909 55.8275C120.581 55.8275 121.253 55.9398 121.701 56.0521C122.26 56.1645 122.596 56.3891 122.932 56.7261C123.268 56.9508 123.492 57.2877 123.716 57.7371C123.828 58.074 123.94 58.5234 123.94 58.9727C123.94 59.5343 123.828 59.9836 123.492 60.3206C123.268 60.6576 122.932 60.9946 122.484 61.1069C122.708 61.2192 122.932 61.3316 123.044 61.4439C123.268 61.5562 123.38 61.7809 123.492 62.0055C123.604 62.2302 123.716 62.4549 123.828 62.6795C123.94 62.9042 123.94 63.2412 123.94 63.4658C123.94 64.4768 123.604 65.2631 122.82 65.7124C122.148 66.274 121.029 66.4987 119.573 66.4987C119.125 66.4987 118.678 66.4987 118.23 66.3864C117.894 66.274 117.558 66.1617 117.222 66.0494C116.886 65.937 116.662 65.7124 116.438 65.4877C116.214 65.2631 115.991 65.0384 115.879 64.7014L117.446 63.6905C117.558 63.9151 117.782 64.0275 117.894 64.2521C118.006 64.3644 118.23 64.4768 118.342 64.5891C118.566 64.7014 118.678 64.7014 118.902 64.8138C119.125 64.8138 119.349 64.9261 119.573 64.9261C119.909 64.9261 120.245 64.9261 120.469 64.8138C120.693 64.7014 121.029 64.7014 121.141 64.5891C121.365 64.4768 121.477 64.3644 121.589 64.1398C121.701 63.9151 121.812 63.8028 121.812 63.4658C121.812 63.0165 121.701 62.5672 121.365 62.3425C121.029 62.1179 120.581 62.0055 119.909 62.0055H117.67V60.096H118.118ZM136.367 68.6329V64.5891H137.375C137.599 64.2521 137.711 63.8028 137.935 63.2412C138.159 62.6795 138.383 62.1179 138.495 61.4439C138.718 60.7699 138.83 59.9836 138.942 59.085C139.054 58.1864 139.166 57.1754 139.166 56.1644H145.436V64.5891H146.892V68.6329H144.988V66.1617H138.383V68.6329H136.367ZM143.421 57.6247H141.07C141.07 58.411 140.958 59.1973 140.846 59.8713C140.734 60.5453 140.622 61.2192 140.398 61.7809C140.286 62.3425 140.062 62.9042 139.838 63.3535C139.614 63.8028 139.502 64.1398 139.278 64.4768H143.309V57.6247H143.421ZM165.365 66.0494V64.9261C164.917 65.3754 164.357 65.7124 163.909 65.9371C163.35 66.1617 162.79 66.3864 162.23 66.3864C161.67 66.3864 161.222 66.274 160.887 66.1617C160.439 66.0494 160.215 65.8247 159.879 65.4877C159.655 65.2631 159.431 64.9261 159.319 64.4768C159.207 64.1398 159.095 63.6905 159.095 63.2412C159.095 62.6795 159.207 62.1179 159.431 61.6686C159.655 61.2192 159.879 60.8823 160.215 60.6576C160.551 60.4329 160.998 60.2083 161.446 60.096C161.894 59.9836 162.454 59.8713 163.014 59.759L165.253 59.5343V59.085C165.253 58.748 165.253 58.5234 165.141 58.2987C165.029 58.074 164.917 57.8494 164.693 57.7371C164.469 57.6247 164.245 57.5124 164.021 57.4001C163.798 57.4001 163.462 57.2877 163.126 57.2877C162.79 57.2877 162.454 57.2877 162.23 57.4001C162.006 57.5124 161.782 57.5124 161.558 57.6247C161.334 57.7371 161.222 57.8494 161.11 57.9617C160.998 58.074 160.887 58.1864 160.775 58.2987L159.207 57.2877C159.319 57.0631 159.543 56.8384 159.655 56.6138C159.879 56.3891 160.103 56.2768 160.439 56.0521C160.775 55.9398 161.11 55.7151 161.558 55.6028C162.006 55.4905 162.454 55.4905 163.014 55.4905C163.686 55.4905 164.357 55.4905 164.805 55.7151C165.365 55.8275 165.813 56.0521 166.149 56.2768C166.485 56.5014 166.82 56.9507 166.932 57.4001C167.156 57.8494 167.156 58.411 167.156 59.085V65.9371H165.365V66.0494ZM165.253 61.2192L163.798 61.3316C163.35 61.3316 163.014 61.4439 162.678 61.5562C162.342 61.6686 162.006 61.7809 161.782 61.8932C161.558 62.0055 161.334 62.2302 161.222 62.4549C161.11 62.6795 160.999 62.9042 160.999 63.2412C160.999 63.8028 161.11 64.1398 161.446 64.3644C161.782 64.5891 162.118 64.7014 162.678 64.7014C162.902 64.7014 163.126 64.7014 163.238 64.5891C163.462 64.4768 163.686 64.4768 163.909 64.3644C164.133 64.2521 164.357 64.1398 164.581 63.9151C164.805 63.8028 165.029 63.5781 165.253 63.4658V61.2192ZM188.205 57.6247H184.846V66.1617H182.831V57.6247H179.584V56.0521H188.205V57.6247ZM202.088 61.4439C202.088 61.8932 202.2 62.3425 202.2 62.7918C202.312 63.1288 202.424 63.4658 202.648 63.8028C202.872 64.0275 203.095 64.2521 203.431 64.3644C203.767 64.4768 204.215 64.5891 204.663 64.5891C205.111 64.5891 205.559 64.4768 205.894 64.3644C206.23 64.2521 206.566 63.9151 206.902 63.5781L208.47 64.7014C208.246 65.0384 208.022 65.2631 207.798 65.4877C207.574 65.7124 207.238 65.937 207.014 66.0494C206.678 66.1617 206.342 66.274 206.006 66.3864C205.559 66.4987 205.111 66.4987 204.663 66.4987C203.096 66.4987 201.864 66.0494 201.08 65.1507C200.297 64.2521 199.961 63.0165 199.961 61.2192C199.961 60.4329 200.073 59.6466 200.185 58.9727C200.297 58.2987 200.632 57.7371 200.968 57.2877C201.304 56.8384 201.752 56.5014 202.424 56.1644C202.984 55.9398 203.655 55.8275 204.551 55.8275C205.335 55.8275 205.894 55.9398 206.454 56.1644C207.014 56.3891 207.35 56.7261 207.686 57.0631C208.022 57.5124 208.246 57.9617 208.358 58.5234C208.47 59.085 208.582 59.759 208.582 60.4329V61.5562H202.088V61.4439ZM206.678 59.9836C206.678 59.1973 206.454 58.5234 206.118 58.074C205.783 57.6247 205.223 57.4001 204.439 57.4001C204.103 57.4001 203.767 57.5124 203.431 57.5124C203.207 57.6247 202.984 57.7371 202.76 57.9617C202.536 58.1864 202.424 58.411 202.312 58.748C202.2 59.085 202.088 59.422 202.088 59.8713H206.678V59.9836ZM225.488 57.6247V58.2987C225.488 59.6466 225.376 60.7699 225.264 61.7809C225.152 62.7918 224.928 63.5781 224.592 64.2521C224.256 64.9261 223.92 65.3754 223.472 65.7124C223.024 66.0494 222.465 66.1617 221.905 66.1617C221.793 66.1617 221.681 66.1617 221.569 66.1617C221.457 66.1617 221.345 66.1617 221.233 66.1617C221.121 66.1617 221.009 66.1617 220.897 66.0494C220.785 66.0494 220.673 66.0494 220.673 65.9371L221.009 64.3644C221.121 64.3644 221.233 64.3644 221.345 64.3644C221.457 64.3644 221.569 64.3644 221.569 64.3644C221.905 64.3644 222.129 64.2521 222.353 64.0275C222.577 63.8028 222.8 63.3535 222.912 62.9042C223.024 62.3425 223.248 61.6686 223.248 60.8823C223.36 59.9836 223.36 58.9727 223.36 57.8494V56.0521H229.966V66.0494H227.951V57.6247H225.488ZM245.976 59.759H247.656C249.111 59.759 250.231 59.9836 250.902 60.5453C251.574 61.1069 251.91 61.8932 251.91 63.0165C251.91 63.5781 251.798 64.0275 251.686 64.3644C251.462 64.7014 251.238 65.0384 250.902 65.3754C250.567 65.6001 250.119 65.8247 249.559 65.9371C248.999 66.0494 248.327 66.1617 247.544 66.1617H243.961V56.1644H245.976V59.759ZM249.783 62.9042C249.783 62.5672 249.783 62.3425 249.671 62.1179C249.559 61.8932 249.447 61.7809 249.223 61.5562C248.999 61.4439 248.775 61.3316 248.439 61.3316C248.103 61.3316 247.768 61.2192 247.32 61.2192H245.976V64.4768H247.544C248.439 64.4768 248.999 64.3644 249.335 64.1398C249.671 63.9151 249.783 63.4658 249.783 62.9042ZM272.847 64.5891C272.623 64.8138 272.511 65.1507 272.287 65.3754C272.063 65.6001 271.839 65.8247 271.503 65.9371C271.167 66.0494 270.831 66.1617 270.495 66.274C270.16 66.3864 269.712 66.3864 269.152 66.3864C268.368 66.3864 267.585 66.274 267.025 66.0494C266.465 65.8247 265.905 65.4877 265.569 64.9261C265.233 64.4768 264.897 63.9151 264.786 63.2412C264.562 62.5672 264.562 61.8932 264.562 61.1069C264.562 60.3206 264.674 59.5343 264.786 58.8603C265.009 58.1864 265.233 57.6247 265.569 57.1754C265.905 56.7261 266.465 56.3891 267.025 56.0521C267.585 55.8275 268.256 55.7151 269.04 55.7151C269.936 55.7151 270.607 55.8275 271.279 56.1644C271.951 56.5014 272.399 56.9508 272.735 57.5124L271.167 58.6357C270.943 58.2987 270.719 58.074 270.384 57.8494C270.048 57.6247 269.6 57.6247 269.152 57.6247C268.256 57.6247 267.696 57.9617 267.249 58.5234C266.801 59.085 266.689 59.9836 266.689 61.2192C266.689 61.7809 266.689 62.2302 266.801 62.6795C266.913 63.1288 267.025 63.4658 267.249 63.8028C267.473 64.1398 267.696 64.3644 268.032 64.4768C268.368 64.5891 268.816 64.7014 269.264 64.7014C269.488 64.7014 269.712 64.7014 269.936 64.7014C270.16 64.7014 270.272 64.5891 270.495 64.4768C270.719 64.3644 270.831 64.2521 270.943 64.1398C271.055 64.0275 271.279 63.8028 271.391 63.6905L272.847 64.5891ZM293.111 57.6247H289.753V66.1617H287.737V57.6247H284.49V56.0521H293.111V57.6247ZM314.048 63.0165C314.048 64.0275 313.712 64.8138 312.928 65.2631C312.145 65.7124 311.137 66.0494 309.682 66.0494H305.651V56.0521H309.458C310.241 56.0521 310.801 56.0521 311.361 56.1644C311.921 56.2768 312.257 56.3891 312.592 56.6138C312.928 56.8384 313.152 57.0631 313.264 57.4001C313.376 57.7371 313.488 58.074 313.488 58.5234C313.488 59.085 313.376 59.5343 313.04 59.9836C312.704 60.3206 312.369 60.6576 311.921 60.8823C312.257 60.9946 312.481 60.9946 312.816 61.2192C313.04 61.3316 313.264 61.4439 313.488 61.6686C313.712 61.8932 313.824 62.1179 313.936 62.3425C313.936 62.3425 314.048 62.6795 314.048 63.0165ZM311.473 58.748C311.473 58.5234 311.473 58.2987 311.361 58.1864C311.249 58.074 311.137 57.9617 310.913 57.8494C310.689 57.7371 310.465 57.7371 310.241 57.6247C310.017 57.6247 309.682 57.6247 309.346 57.6247H307.778V60.2083H309.346C310.129 60.2083 310.689 60.096 311.025 59.8713C311.249 59.5343 311.473 59.1973 311.473 58.748ZM311.921 63.0165C311.921 62.7918 311.921 62.5672 311.809 62.3425C311.697 62.1179 311.585 62.0055 311.361 61.8932C311.137 61.7809 310.913 61.6686 310.577 61.6686C310.241 61.6686 309.905 61.5562 309.57 61.5562H307.666V64.4768H309.122C309.57 64.4768 310.017 64.4768 310.353 64.3644C310.689 64.3644 311.025 64.2521 311.249 64.1398C311.473 64.0275 311.697 63.9151 311.809 63.6905C311.921 63.5781 311.921 63.3535 311.921 63.0165ZM336.104 61.1069C336.104 61.8932 335.992 62.6795 335.88 63.3535C335.656 64.0275 335.432 64.5891 335.096 65.0384C334.761 65.4877 334.201 65.8247 333.641 66.0494C333.081 66.274 332.409 66.3864 331.514 66.3864C330.73 66.3864 329.946 66.274 329.387 66.0494C328.827 65.8247 328.379 65.4877 327.931 65.0384C327.595 64.5891 327.259 64.0275 327.147 63.3535C326.923 62.6795 326.923 62.0055 326.923 61.2192C326.923 60.4329 327.035 59.6466 327.147 58.9727C327.371 58.2987 327.595 57.7371 327.931 57.2877C328.267 56.8384 328.827 56.5014 329.387 56.2768C329.946 56.0521 330.618 55.9398 331.514 55.9398C332.297 55.9398 332.969 56.0521 333.641 56.2768C334.201 56.5014 334.649 56.8384 335.096 57.2877C335.432 57.7371 335.768 58.2987 335.88 58.9727C335.992 59.5343 336.104 60.2083 336.104 61.1069ZM333.977 61.1069C333.977 59.8713 333.753 58.9727 333.417 58.411C333.081 57.8494 332.409 57.5124 331.514 57.5124C330.618 57.5124 330.058 57.8494 329.61 58.411C329.163 58.9727 329.051 59.8713 329.051 61.1069C329.051 62.2302 329.275 63.1288 329.61 63.6905C329.946 64.2521 330.618 64.5891 331.514 64.5891C332.409 64.5891 332.969 64.2521 333.417 63.6905C333.753 63.1288 333.977 62.2302 333.977 61.1069Z" fill="#384B9C"/>
<path fill-rule="evenodd" clip-rule="evenodd" d="M0 13.7042L48.7027 0.898682L61.3542 49.7617L52.6213 52.0083L31.1249 8.64937L9.85249 51.559L0 13.7042ZM42.5449 54.8165L16.3462 61.6685L21.6083 50.4357H40.4176L42.5449 54.8165ZM31.1249 29.4302L36.7229 41.4494H25.5269L31.1249 29.4302Z" fill="#384B9C"/>
<path fill-rule="evenodd" clip-rule="evenodd" d="M57.5484 57.4L56.5408 70.0932L16.7949 65.3754L57.5484 57.4Z" fill="#384B9C"/>
<path fill-rule="evenodd" clip-rule="evenodd" d="M43.4395 72.2275L41.4243 81.1014L17.1289 69.1946L43.4395 72.2275Z" fill="#384B9C"/>
</svg>
